HIERARCHY
ROOT joint_Root
{
  OFFSET 0 0 0
  CHANNELS 6 Xposition Yposition Zposition Zrotation Xrotation Yrotation
  JOINT Hips
  {
    OFFSET 0 93.9241 -3
    CHANNELS 6 Xposition Yposition Zposition Zrotation Xrotation Yrotation
    JOINT Spine
    {
      OFFSET 15.7357 0 0
      CHANNELS 6 Xposition Yposition Zposition Zrotation Xrotation Yrotation
      JOINT Chest
      {
        OFFSET 8.98455 -0.406207 0
        CHANNELS 6 Xposition Yposition Zposition Zrotation Xrotation Yrotation
        JOINT Neck
        {
          OFFSET 16.3773 0 0
          CHANNELS 6 Xposition Yposition Zposition Zrotation Xrotation Yrotation
          JOINT Head
          {
            OFFSET 6.45672 0 0
            CHANNELS 6 Xposition Yposition Zposition Zrotation Xrotation Yrotation
            End Site
            {
              OFFSET 0 0 0
            }
          }
        }
        JOINT Shoulder_L
        {
          OFFSET 12.9942 -0.242716 4.98039
          CHANNELS 6 Xposition Yposition Zposition Zrotation Xrotation Yrotation
          JOINT UpperArm_L
          {
            OFFSET 5.34809 0 0
            CHANNELS 6 Xposition Yposition Zposition Zrotation Xrotation Yrotation
            JOINT LowerArm_L
            {
              OFFSET 24.3286 1.87007e-05 0
              CHANNELS 6 Xposition Yposition Zposition Zrotation Xrotation Yrotation
              JOINT Hand_L
              {
                OFFSET 22.2916 0 0
                CHANNELS 6 Xposition Yposition Zposition Zrotation Xrotation Yrotation
                End Site
                {
                  OFFSET 0 0 0
                }
              }
            }
          }
        }
        JOINT Shoulder_R
        {
          OFFSET 12.9945 -0.242716 -4.98039
          CHANNELS 6 Xposition Yposition Zposition Zrotation Xrotation Yrotation
          JOINT UpperArm_R
          {
            OFFSET -5.34813 0 0
            CHANNELS 6 Xposition Yposition Zposition Zrotation Xrotation Yrotation
            JOINT LowerArm_R
            {
              OFFSET -24.3289 0.000322201 0
              CHANNELS 6 Xposition Yposition Zposition Zrotation Xrotation Yrotation
              JOINT Hand_R
              {
                OFFSET -22.2915 -0.000108084 0
                CHANNELS 6 Xposition Yposition Zposition Zrotation Xrotation Yrotation
                End Site
                {
                  OFFSET 0 0 0
                }
              }
            }
          }
        }
      }
    }
    JOINT UpperLeg_L
    {
      OFFSET -2.19248 -6.46944 0
      CHANNELS 6 Xposition Yposition Zposition Zrotation Xrotation Yrotation
      JOINT LowerLeg_L
      {
        OFFSET 39.0811 0 -1.23785e-05
        CHANNELS 6 Xposition Yposition Zposition Zrotation Xrotation Yrotation
        JOINT Foot_L
        {
          OFFSET 40.9854 0 -1.26872e-05
          CHANNELS 6 Xposition Yposition Zposition Zrotation Xrotation Yrotation
          JOINT Toes_L
          {
            OFFSET 11.7543 0 0
            CHANNELS 6 Xposition Yposition Zposition Zrotation Xrotation Yrotation
            End Site
            {
              OFFSET 0 0 0
            }
          }
        }
      }
    }
    JOINT UpperLeg_R
    {
      OFFSET -2.19251 6.46944 0
      CHANNELS 6 Xposition Yposition Zposition Zrotation Xrotation Yrotation
      JOINT LowerLeg_R
      {
        OFFSET -39.0811 -0.00228153 -0.0401928
        CHANNELS 6 Xposition Yposition Zposition Zrotation Xrotation Yrotation
        JOINT Foot_R
        {
          OFFSET -40.9854 0 0
          CHANNELS 6 Xposition Yposition Zposition Zrotation Xrotation Yrotation
          JOINT Toes_R
          {
            OFFSET -11.7543 0 0
            CHANNELS 6 Xposition Yposition Zposition Zrotation Xrotation Yrotation
            End Site
            {
              OFFSET 0 0 0
            }
          }
        }
      }
    }
  }
}
MOTION
Frames:	9
Frame Time:	0.0333333
0 0 0 0 0 -0 -0.219229 92.5478 -4.82878 89.9452 -51.5413 -6.16547 15.7357 5.1072e-06 -5.51765e-07 167.399 83.8299 -169.462 8.98455 -0.406207 -4.3199e-07 -4.90876 12.2587 -3.61262 16.3773 -1.3905e-06 -6.99897e-07 -3.67016 16.0212 -5.46925 6.45672 -1.25837e-06 -1.02172e-07 8.06236 11.1442 -4.25564 12.9942 -0.242716 4.98039 -90.6273 1.87752 -86.5222 5.34809 -7.22636e-06 -6.2814e-07 -29.8929 -51.1339 28.7176 24.3286 1.87007e-05 4.90208e-06 24.527 32.4985 -40.3405 22.2916 -9.88446e-07 4.63217e-06 18.0796 4.54413 15.8644 12.9945 -0.242716 -4.98039 90.0096 3.52277 -105.156 -5.34813 -1.25947e-06 -3.79883e-06 -60.789 33.9174 -17.3225 -24.3289 0.000322201 -8.65921e-06 16.011 -13.0878 -128.278 -22.2915 -0.000108084 -4.47941e-06 17.3572 5.62329 -12.8492 -2.19248 -6.46944 -1.22534e-07 -178.564 11.5243 -19.6882 39.0811 -6.73843e-06 -1.23785e-05 -0.0330865 0.0495745 34.8509 40.9854 -6.48686e-06 -1.26872e-05 -10.798 -30.6873 -58.667 11.7543 -2.30145e-07 3.05095e-06 -0.319591 -1.78106 -27.7805 -2.19251 6.46944 -1.45247e-06 -174.193 -1.86725 171.924 -39.0811 -0.00228153 -0.0401928 0.0576968 -0.175757 14.6881 -40.9854 7.72618e-06 5.99936e-06 5.39884 -6.6826 -62.9198 -11.7543 -5.6619e-06 -5.58687e-06 -0.208839 0.16715 -16.5683 
0 0 0 0 0 -0 -0.280033 92.547 -4.53488 90.0158 -51.6209 -6.13543 15.7357 5.1072e-06 -5.51765e-07 168.958 83.8039 -170.887 8.98455 -0.406207 -4.3199e-07 -5.24672 12.3675 -3.30413 16.3773 -1.3905e-06 -6.99897e-07 -3.98305 16.2939 -5.7536 6.45672 -1.25837e-06 -1.02172e-07 7.83314 11.1502 -5.15756 12.9942 -0.242716 4.98039 -90.7191 2.13773 -86.4028 5.34809 -7.22636e-06 -6.2814e-07 -29.4458 -51.3661 28.9952 24.3286 1.87007e-05 4.90208e-06 25.1031 32.4544 -41.1223 22.2916 -9.88446e-07 4.63217e-06 18.1597 4.53726 15.98 12.9945 -0.242716 -4.98039 90.0164 3.46411 -105.272 -5.34813 -1.25947e-06 -3.79883e-06 -60.8558 33.9913 -17.255 -24.3289 0.000322201 -8.65921e-06 16.0275 -13.1162 -128.307 -22.2915 -0.000108084 -4.47941e-06 17.2891 5.62357 -12.8698 -2.19248 -6.46944 -1.22534e-07 -178.808 11.5242 -19.4473 39.0811 -6.73843e-06 -1.23785e-05 -0.0349824 0.052986 34.6899 40.9854 -6.48686e-06 -1.26872e-05 -10.6376 -30.8454 -58.8045 11.7543 -2.30145e-07 3.05095e-06 -0.360214 -1.81513 -27.8151 -2.19251 6.46944 -1.45247e-06 -174.383 -2.26597 172.039 -39.0811 -0.00228153 -0.0401928 0.0575233 -0.174613 14.7303 -40.9854 7.72618e-06 5.99936e-06 5.20647 -7.0039 -63.0719 -11.7543 -5.6619e-06 -5.58687e-06 -0.220498 0.176609 -16.5679 
0 0 0 0 0 -0 -0.346372 92.5315 -4.23897 89.9424 -51.7283 -6.17736 15.7357 5.1072e-06 -5.51765e-07 170.608 83.7407 -172.364 8.98455 -0.406207 -4.3199e-07 -5.60145 12.5391 -2.91004 16.3773 -1.3905e-06 -6.99897e-07 -4.21979 16.5348 -6.05926 6.45672 -1.25837e-06 -1.02172e-07 7.75534 11.1052 -5.94039 12.9942 -0.242716 4.98039 -90.8085 2.39757 -86.3607 5.34809 -7.22636e-06 -6.2814e-07 -29.0617 -51.8076 29.3128 24.3286 1.87007e-05 4.90208e-06 25.7271 32.5049 -41.8821 22.2916 -9.88446e-07 4.63217e-06 18.789 4.53024 16.0976 12.9945 -0.242716 -4.98039 90.0175 3.41015 -105.295 -5.34813 -1.25947e-06 -3.79883e-06 -60.8701 34.0767 -17.2108 -24.3289 0.000322201 -8.65921e-06 16.014 -13.0897 -128.276 -22.2915 -0.000108084 -4.47941e-06 17.2992 5.62446 -12.9323 -2.19248 -6.46944 -1.22534e-07 -178.954 11.4994 -19.1769 39.0811 -6.73843e-06 -1.23785e-05 -0.0367174 0.0547138 34.6084 40.9854 -6.48686e-06 -1.26872e-05 -10.602 -30.9119 -59.0885 11.7543 -2.30145e-07 3.05095e-06 -0.343275 -1.79839 -27.8283 -2.19251 6.46944 -1.45247e-06 -174.477 -2.65632 172.195 -39.0811 -0.00228153 -0.0401928 0.057684 -0.174458 14.7943 -40.9854 7.72618e-06 5.99936e-06 5.02174 -7.28483 -63.2475 -11.7543 -5.6619e-06 -5.58687e-06 -0.227014 0.182044 -16.5677 
0 0 0 0 0 -0 -0.405698 92.507 -3.95582 89.8514 -51.8189 -6.21802 15.7357 5.1072e-06 -5.51765e-07 171.958 83.7075 -173.544 8.98455 -0.406207 -4.3199e-07 -5.9075 12.6318 -2.5308 16.3773 -1.3905e-06 -6.99897e-07 -4.48115 16.8524 -6.29234 6.45672 -1.25837e-06 -1.02172e-07 7.679 11.2552 -6.68408 12.9942 -0.242716 4.98039 -90.878 2.59258 -86.284 5.34809 -7.22636e-06 -6.2814e-07 -28.951 -51.8948 29.5311 24.3286 1.87007e-05 4.90208e-06 26.5413 32.6751 -42.7744 22.2916 -9.88446e-07 4.63217e-06 19.0688 4.52599 16.1686 12.9945 -0.242716 -4.98039 90.0227 3.4083 -105.382 -5.34813 -1.25947e-06 -3.79883e-06 -60.7882 34.1274 -17.2464 -24.3289 0.000322201 -8.65921e-06 16.0155 -13.0828 -128.259 -22.2915 -0.000108084 -4.47941e-06 17.2386 5.62448 -12.9338 -2.19248 -6.46944 -1.22534e-07 -179.064 11.4753 -18.9761 39.0811 -6.73843e-06 -1.23785e-05 -0.0362776 0.0542838 34.639 40.9854 -6.48686e-06 -1.26872e-05 -10.7233 -30.8589 -59.3255 11.7543 -2.30145e-07 3.05095e-06 -0.238531 -1.7186 -28.0486 -2.19251 6.46944 -1.45247e-06 -174.552 -2.77185 172.312 -39.0811 -0.00228153 -0.0401928 0.0574087 -0.170894 14.9436 -40.9854 7.72618e-06 5.99936e-06 4.86524 -7.32098 -63.4788 -11.7543 -5.6619e-06 -5.58687e-06 -0.219221 0.175897 -16.5679 
0 0 0 0 0 -0 -0.47539 92.4656 -3.6771 89.7424 -51.8822 -6.12836 15.7357 5.1072e-06 -5.51765e-07 172.664 83.6659 -174.058 8.98455 -0.406207 -4.3199e-07 -6.07527 12.713 -2.1222 16.3773 -1.3905e-06 -6.99897e-07 -4.71286 17.2244 -6.46487 6.45672 -1.25837e-06 -1.02172e-07 7.58235 11.5397 -7.57958 12.9942 -0.242716 4.98039 -90.9625 2.83873 -86.2624 5.34809 -7.22636e-06 -6.2814e-07 -28.7746 -52.129 29.8565 24.3286 1.87007e-05 4.90208e-06 27.1014 32.6406 -43.4952 22.2916 -9.88446e-07 4.63217e-06 19.1735 4.5171 16.3168 12.9945 -0.242716 -4.98039 90.0197 3.38332 -105.334 -5.34813 -1.25947e-06 -3.79883e-06 -60.6798 34.1526 -17.3788 -24.3289 0.000322201 -8.65921e-06 16.0166 -13.0782 -128.247 -22.2915 -0.000108084 -4.47941e-06 17.2653 5.62487 -12.9599 -2.19248 -6.46944 -1.22534e-07 -179.194 11.4059 -18.7758 39.0811 -6.73843e-06 -1.23785e-05 -0.037534 0.0565636 34.9138 40.9854 -6.48686e-06 -1.26872e-05 -10.7051 -30.879 -59.4606 11.7543 -2.30145e-07 3.05095e-06 -0.257164 -1.75199 -28.1272 -2.19251 6.46944 -1.45247e-06 -174.592 -2.9028 172.52 -39.0811 -0.00228153 -0.0401928 0.0587471 -0.171625 15.2161 -40.9854 7.72618e-06 5.99936e-06 4.70659 -7.41464 -63.7798 -11.7543 -5.6619e-06 -5.58687e-06 -0.212615 0.17067 -16.5681 
0 0 0 0 0 -0 -0.550876 92.4192 -3.4218 89.6228 -51.8246 -6.01417 15.7357 5.1072e-06 -5.51765e-07 173.021 83.6667 -174.227 8.98455 -0.406207 -4.3199e-07 -6.17666 12.6992 -1.73438 16.3773 -1.3905e-06 -6.99897e-07 -4.84151 17.5967 -6.64512 6.45672 -1.25837e-06 -1.02172e-07 7.31165 11.879 -8.46112 12.9942 -0.242716 4.98039 -91.02 3.00972 -86.2699 5.34809 -7.22636e-06 -6.2814e-07 -28.8079 -52.3209 30.0429 24.3286 1.87007e-05 4.90208e-06 27.4374 32.6248 -43.9194 22.2916 -9.88446e-07 4.63217e-06 19.6139 4.50537 16.5113 12.9945 -0.242716 -4.98039 90.0174 3.34129 -105.299 -5.34813 -1.25947e-06 -3.79883e-06 -60.7611 34.1176 -17.4285 -24.3289 0.000322201 -8.65921e-06 15.981 -13.0422 -128.237 -22.2915 -0.000108084 -4.47941e-06 17.485 5.62655 -13.0821 -2.19248 -6.46944 -1.22534e-07 -179.308 11.3329 -18.6496 39.0811 -6.73843e-06 -1.23785e-05 -0.0421334 0.0610532 35.3267 40.9854 -6.48686e-06 -1.26872e-05 -10.496 -30.8461 -59.4646 11.7543 -2.30145e-07 3.05095e-06 -0.37103 -1.87837 -28.0918 -2.19251 6.46944 -1.45247e-06 -174.601 -2.92575 172.75 -39.0811 -0.00228153 -0.0401928 0.0588551 -0.167295 15.4998 -40.9854 7.72618e-06 5.99936e-06 4.55599 -7.51402 -64.0896 -11.7543 -5.6619e-06 -5.58687e-06 -0.223293 0.17922 -16.5678 
0 0 0 0 0 -0 -0.640691 92.3576 -3.16084 89.4419 -51.7757 -5.9138 15.7357 5.1072e-06 -5.51765e-07 173.459 83.6499 -174.484 8.98455 -0.406207 -4.3199e-07 -6.29144 12.7222 -1.35718 16.3773 -1.3905e-06 -6.99897e-07 -4.95893 17.9011 -6.86642 6.45672 -1.25837e-06 -1.02172e-07 7.07471 12.2197 -9.03762 12.9942 -0.242716 4.98039 -91.0553 3.12441 -86.3265 5.34809 -7.22636e-06 -6.2814e-07 -28.8188 -52.3857 30.2468 24.3286 1.87007e-05 4.90208e-06 27.9127 32.7416 -44.4063 22.2916 -9.88446e-07 4.63217e-06 19.3506 4.50939 16.4445 12.9945 -0.242716 -4.98039 90.0119 3.36037 -105.203 -5.34813 -1.25947e-06 -3.79883e-06 -61.0144 34.0719 -17.3333 -24.3289 0.000322201 -8.65921e-06 15.9616 -13.0187 -128.223 -22.2915 -0.000108084 -4.47941e-06 17.4931 5.62757 -13.1569 -2.19248 -6.46944 -1.22534e-07 -179.377 11.3027 -18.4794 39.0811 -6.73843e-06 -1.23785e-05 -0.0440098 0.0639961 35.7542 40.9854 -6.48686e-06 -1.26872e-05 -10.4378 -30.8092 -59.5426 11.7543 -2.30145e-07 3.05095e-06 -0.423794 -1.95681 -28.2606 -2.19251 6.46944 -1.45247e-06 -174.561 -3.15613 172.986 -39.0811 -0.00228153 -0.0401928 0.0604554 -0.16703 15.8603 -40.9854 7.72618e-06 5.99936e-06 4.38057 -7.80102 -64.4324 -11.7543 -5.6619e-06 -5.58687e-06 -0.233609 0.187486 -16.5676 
0 0 0 0 0 -0 -0.735916 92.2964 -2.90706 89.2769 -51.7733 -5.81285 15.7357 5.1072e-06 -5.51765e-07 174.069 83.6409 -174.929 8.98455 -0.406207 -4.3199e-07 -6.44545 12.7348 -1.00752 16.3773 -1.3905e-06 -6.99897e-07 -5.11174 18.2307 -6.99649 6.45672 -1.25837e-06 -1.02172e-07 6.98159 12.5742 -9.52478 12.9942 -0.242716 4.98039 -91.1412 3.37153 -86.2885 5.34809 -7.22636e-06 -6.2814e-07 -28.5353 -52.4926 30.558 24.3286 1.87007e-05 4.90208e-06 28.2861 32.7061 -44.8834 22.2916 -9.88446e-07 4.63217e-06 19.26 4.50881 16.4541 12.9945 -0.242716 -4.98039 90.0106 3.46207 -105.175 -5.34813 -1.25947e-06 -3.79883e-06 -61.2847 34.078 -17.1085 -24.3289 0.000322201 -8.65921e-06 15.8187 -12.9353 -128.311 -22.2915 -0.000108084 -4.47941e-06 17.4134 5.62906 -13.2659 -2.19248 -6.46944 -1.22534e-07 -179.444 11.2968 -18.3282 39.0811 -6.73843e-06 -1.23785e-05 -0.0468801 0.065952 36.2084 40.9854 -6.48686e-06 -1.26872e-05 -10.5101 -30.7921 -59.689 11.7543 -2.30145e-07 3.05095e-06 -0.42132 -1.98415 -28.3376 -2.19251 6.46944 -1.45247e-06 -174.519 -3.44293 173.223 -39.0811 -0.00228153 -0.0401928 0.0618469 -0.166672 16.1982 -40.9854 7.72618e-06 5.99936e-06 4.20904 -8.1315 -64.7615 -11.7543 -5.6619e-06 -5.58687e-06 -0.231414 0.185699 -16.5676 
0 0 0 0 0 -0 -0.836784 92.2241 -2.65295 89.0696 -51.7597 -5.76592 15.7357 5.1072e-06 -5.51765e-07 174.701 83.6258 -175.403 8.98455 -0.406207 -4.3199e-07 -6.60314 12.7587 -0.670671 16.3773 -1.3905e-06 -6.99897e-07 -5.31968 18.5452 -7.08537 6.45672 -1.25837e-06 -1.02172e-07 6.92316 12.8731 -9.95782 12.9942 -0.242716 4.98039 -91.23 3.64753 -86.3509 5.34809 -7.22636e-06 -6.2814e-07 -28.2057 -52.5621 30.8428 24.3286 1.87007e-05 4.90208e-06 28.5536 32.7531 -45.1661 22.2916 -9.88446e-07 4.63217e-06 20.3115 4.50685 16.4868 12.9945 -0.242716 -4.98039 90.0094 3.5203 -105.153 -5.34813 -1.25947e-06 -3.79883e-06 -61.5602 34.1603 -16.9088 -24.3289 0.000322201 -8.65921e-06 15.8549 -12.9756 -128.329 -22.2915 -0.000108084 -4.47941e-06 17.4488 5.62954 -13.302 -2.19248 -6.46944 -1.22534e-07 -179.483 11.2697 -18.1816 39.0811 -6.73843e-06 -1.23785e-05 -0.0494588 0.0683043 36.6345 40.9854 -6.48686e-06 -1.26872e-05 -10.5186 -30.7809 -59.8505 11.7543 -2.30145e-07 3.05095e-06 -0.44976 -2.04036 -28.5066 -2.19251 6.46944 -1.45247e-06 -174.451 -3.75848 173.41 -39.0811 -0.00228153 -0.0401928 0.0641608 -0.168563 16.5997 -40.9854 7.72618e-06 5.99936e-06 4.0285 -8.46105 -65.1255 -11.7543 -5.6619e-06 -5.58687e-06 -0.235531 0.189022 -16.5675 
